<?xml version="1.0" encoding="utf-8"?>
<!-- Generator: Adobe Illustrator 16.0.0, SVG Export Plug-In . SVG Version: 6.00 Build 0)  -->
<!DOCTYPE svg PUBLIC "-//W3C//DTD SVG 1.1//EN" "http://www.w3.org/Graphics/SVG/1.1/DTD/svg11.dtd">
<svg version="1.1" id="Layer_1" xmlns="http://www.w3.org/2000/svg" xmlns:xlink="http://www.w3.org/1999/xlink" x="0px" y="0px"
	 width="514.162px" height="47.217px" viewBox="2.905 5.891 514.162 47.217" enable-background="new 2.905 5.891 514.162 47.217"
	 xml:space="preserve">
<g enable-background="new    ">
	<path fill="#FFFFFF" d="M17.944,41.389c0,0.798-0.249,1.448-0.745,1.952c-0.497,0.506-1.144,0.758-1.941,0.758H5.64
		c-0.798,0-1.453-0.252-1.965-0.758c-0.513-0.504-0.769-1.154-0.769-1.952v-9.692H6.3v9.399h8.252V31.99L4.004,19.246
		c-0.732-0.879-1.099-1.847-1.099-2.905V8.601c0-0.797,0.256-1.448,0.769-1.953C4.187,6.144,4.842,5.891,5.64,5.891h9.619
		c0.797,0,1.444,0.253,1.941,0.757c0.496,0.505,0.745,1.156,0.745,1.953v8.887h-3.394V8.894H6.299v8.057l10.596,12.744
		c0.7,0.847,1.05,1.799,1.05,2.855L17.944,41.389L17.944,41.389z"/>
	<path fill="#FFFFFF" d="M32.104,44.099H27.49c-1.823,0-2.734-0.919-2.734-2.76V23.2H21.9v-2.856h2.856v-7.396h3.198v7.396h4.15
		V23.2h-4.15v18.042h4.15V44.099z"/>
	<path fill="#FFFFFF" d="M49.683,44.099h-3.198V43.44c-1.286,0.18-2.572,0.351-3.857,0.513c-1.595,0.195-2.873,0.293-3.833,0.293
		c-1.774,0-2.661-0.879-2.661-2.637v-8.667c0-1.822,0.919-2.734,2.759-2.734h7.642v-7.152h-6.982v4.053h-3.149v-4.004
		c0-1.839,0.911-2.76,2.734-2.76h7.812c1.823,0,2.734,0.921,2.734,2.76L49.683,44.099L49.683,44.099z M46.533,41.145v-8.398h-7.251
		v8.545L46.533,41.145z"/>
	<path fill="#FFFFFF" d="M68.652,44.099h-3.247V23.25l-7.153,0.195v20.654h-3.247V20.344h3.247v0.659
		c1.27-0.162,2.547-0.333,3.833-0.513c1.562-0.195,2.848-0.293,3.857-0.293c1.807,0,2.71,0.888,2.71,2.661V44.099z"/>
	<path fill="#FFFFFF" d="M82.886,8.748h-4.59v11.597h4.053v2.856h-4.053v20.898h-3.198V23.201h-2.759v-2.856h2.759V8.65
		c0-1.839,0.911-2.759,2.734-2.759h5.054V8.748z"/>
	<path fill="#FFFFFF" d="M99.438,41.341c0,1.841-0.92,2.76-2.759,2.76h-8.154c-1.823,0-2.734-0.919-2.734-2.76V23.103
		c0-1.839,0.911-2.76,2.734-2.76h8.154c1.839,0,2.759,0.921,2.759,2.76V41.341z M96.191,41.243V23.201h-7.153v18.042H96.191z"/>
	<path fill="#FFFFFF" d="M117.163,28.157h-3.198V23.25l-5.981,0.195v20.654h-3.247V20.344h3.247v0.659
		c1.074-0.162,2.156-0.333,3.247-0.513c1.302-0.195,2.384-0.293,3.247-0.293c1.79,0,2.686,0.888,2.686,2.661L117.163,28.157
		L117.163,28.157z"/>
	<path fill="#FFFFFF" d="M134.79,44.099h-3.223V43.44c-3.483,0.537-5.412,0.806-5.786,0.806c-1.384,0-2.499-0.468-3.345-1.404
		c-0.847-0.936-1.27-2.103-1.27-3.503V25.447c0-1.465,0.48-2.682,1.44-3.65c0.96-0.968,2.165-1.452,3.613-1.452h5.347V5.891h3.223
		L134.79,44.099L134.79,44.099z M131.567,41.145V23.201h-4.492c-1.791,0-2.686,0.92-2.686,2.759v12.695
		c0,1.823,0.895,2.734,2.686,2.734C127.498,41.389,128.996,41.308,131.567,41.145z"/>
	<path fill="#FFFFFF" d="M165.21,41.389c0,0.798-0.249,1.448-0.745,1.952c-0.497,0.506-1.144,0.758-1.941,0.758h-9.619
		c-0.798,0-1.453-0.252-1.965-0.758c-0.513-0.504-0.769-1.154-0.769-1.952v-9.692h3.394v9.399h8.252V31.99L151.27,19.246
		c-0.732-0.879-1.099-1.847-1.099-2.905V8.601c0-0.797,0.256-1.448,0.769-1.953c0.513-0.504,1.167-0.757,1.965-0.757h9.619
		c0.797,0,1.444,0.253,1.941,0.757c0.496,0.505,0.745,1.156,0.745,1.953v8.887h-3.394V8.894h-8.252v8.057l10.596,12.744
		c0.7,0.847,1.05,1.799,1.05,2.855V41.389L165.21,41.389z"/>
	<path fill="#FFFFFF" d="M179.37,44.099h-4.614c-1.823,0-2.734-0.919-2.734-2.76V23.2h-2.856v-2.856h2.856v-7.396h3.198v7.396h4.15
		V23.2h-4.15v18.042h4.15V44.099z"/>
	<path fill="#FFFFFF" d="M197.119,44.099h-3.198V43.44c-1.302,0.18-2.596,0.351-3.882,0.513c-1.562,0.195-2.856,0.293-3.882,0.293
		c-1.758,0-2.637-0.879-2.637-2.637V20.344h3.198v20.851l7.202-0.195V20.344h3.198L197.119,44.099L197.119,44.099z"/>
	<path fill="#FFFFFF" d="M215.918,44.099h-3.223V43.44c-3.483,0.537-5.412,0.806-5.786,0.806c-1.384,0-2.499-0.468-3.345-1.404
		c-0.847-0.936-1.27-2.103-1.27-3.503V25.447c0-1.465,0.48-2.682,1.44-3.65c0.96-0.968,2.165-1.452,3.613-1.452h5.347V5.891h3.223
		L215.918,44.099L215.918,44.099z M212.695,41.145V23.201h-4.492c-1.791,0-2.686,0.92-2.686,2.759v12.695
		c0,1.823,0.895,2.734,2.686,2.734C208.626,41.389,210.124,41.308,212.695,41.145z"/>
	<path fill="#FFFFFF" d="M234.546,41.341c0,1.841-0.912,2.76-2.734,2.76H224c-1.823,0-2.734-0.919-2.734-2.76V23.103
		c0-1.839,0.911-2.76,2.734-2.76h7.812c1.823,0,2.734,0.921,2.734,2.76v8.545l-1.099,1.146h-9.033v8.595h6.982v-4.347h3.149
		L234.546,41.341L234.546,41.341z M231.396,30.208v-7.152h-6.982v7.152H231.396z"/>
	<path fill="#FFFFFF" d="M253.564,44.099h-3.247V23.25l-7.153,0.195v20.654h-3.247V20.344h3.247v0.659
		c1.27-0.162,2.547-0.333,3.833-0.513c1.562-0.195,2.848-0.293,3.857-0.293c1.807,0,2.71,0.888,2.71,2.661V44.099z"/>
	<path fill="#FFFFFF" d="M267.359,44.099h-4.615c-1.822,0-2.734-0.919-2.734-2.76V23.2h-2.856v-2.856h2.856v-7.396h3.199v7.396h4.15
		V23.2h-4.15v18.042h4.15V44.099z"/>
	<path fill="#FFFFFF" d="M296.582,41.389c0,0.798-0.248,1.448-0.744,1.952c-0.496,0.506-1.145,0.758-1.941,0.758h-9.619
		c-0.797,0-1.451-0.252-1.965-0.758c-0.513-0.504-0.77-1.154-0.77-1.952v-9.692h3.395v9.399h8.252V31.99l-10.547-12.744
		c-0.731-0.879-1.1-1.847-1.1-2.905V8.601c0-0.797,0.257-1.448,0.77-1.953c0.514-0.504,1.168-0.757,1.965-0.757h9.619
		c0.799,0,1.445,0.253,1.941,0.757c0.496,0.505,0.744,1.156,0.744,1.953v8.887h-3.393V8.894h-8.252v8.057l10.596,12.744
		c0.699,0.847,1.049,1.799,1.049,2.855V41.389z"/>
	<path fill="#FFFFFF" d="M315.845,38.997c0,1.465-0.479,2.683-1.44,3.649c-0.961,0.969-2.164,1.453-3.613,1.453h-5.346v9.009h-3.248
		V20.344h3.248v0.659c1.285-0.162,2.569-0.325,3.856-0.487c1.627-0.211,2.904-0.317,3.832-0.317c1.808,0,2.711,0.888,2.711,2.661
		V38.997L315.845,38.997z M312.597,38.509V23.25l-7.151,0.195v17.798h4.491C311.71,41.243,312.597,40.332,312.597,38.509z"/>
	<path fill="#FFFFFF" d="M334.472,44.099h-3.196V43.44c-1.287,0.18-2.572,0.351-3.857,0.513c-1.596,0.195-2.873,0.293-3.834,0.293
		c-1.773,0-2.66-0.879-2.66-2.637v-8.667c0-1.822,0.918-2.734,2.758-2.734h7.644v-7.152h-6.982v4.053h-3.149v-4.004
		c0-1.839,0.912-2.76,2.733-2.76h7.812c1.821,0,2.733,0.921,2.733,2.76L334.472,44.099L334.472,44.099z M331.324,41.145v-8.398
		h-7.252v8.545L331.324,41.145z"/>
	<path fill="#FFFFFF" d="M352.978,41.341c0,1.841-0.911,2.76-2.733,2.76h-7.715c-1.822,0-2.734-0.919-2.734-2.76V23.103
		c0-1.839,0.912-2.76,2.734-2.76h7.715c1.822,0,2.733,0.921,2.733,2.76v4.735h-3.196V23.2h-6.738v18.042h6.738v-5.298h3.196V41.341z
		"/>
	<path fill="#FFFFFF" d="M371.533,41.341c0,1.841-0.912,2.76-2.734,2.76h-7.812c-1.822,0-2.734-0.919-2.734-2.76V23.103
		c0-1.839,0.912-2.76,2.734-2.76h7.812c1.822,0,2.734,0.921,2.734,2.76v8.545l-1.099,1.146h-9.032v8.595h6.981v-4.347h3.148
		L371.533,41.341L371.533,41.341z M368.384,30.208v-7.152h-6.981v7.152H368.384z"/>
	<path fill="#FFFFFF" d="M390.673,44.099h-3.393V5.891h3.393V44.099z"/>
	<path fill="#FFFFFF" d="M410.302,44.099h-3.246V23.25l-7.153,0.195v20.654h-3.246V20.344h3.246v0.659
		c1.27-0.162,2.547-0.333,3.834-0.513c1.562-0.195,2.848-0.293,3.856-0.293c1.808,0,2.709,0.888,2.709,2.661V44.099L410.302,44.099z
		"/>
	<path fill="#FFFFFF" d="M418.994,15.144h-3.295v-4.103h3.295V15.144z M418.945,44.099h-3.197V20.344h3.197V44.099z"/>
	<path fill="#FFFFFF" d="M433.007,44.099h-4.613c-1.823,0-2.733-0.919-2.733-2.76V23.2h-2.857v-2.856h2.857v-7.396h3.197v7.396
		h4.149V23.2h-4.149v18.042h4.149V44.099L433.007,44.099z"/>
	<path fill="#FFFFFF" d="M440.601,15.144h-3.297v-4.103h3.297V15.144z M440.552,44.099h-3.199V20.344h3.199V44.099z"/>
	<path fill="#FFFFFF" d="M459.498,44.099h-3.199V43.44c-1.285,0.18-2.572,0.351-3.856,0.513c-1.597,0.195-2.873,0.293-3.832,0.293
		c-1.775,0-2.662-0.879-2.662-2.637v-8.667c0-1.822,0.92-2.734,2.76-2.734h7.641v-7.152h-6.981v4.053h-3.148v-4.004
		c0-1.839,0.91-2.76,2.734-2.76h7.812c1.822,0,2.734,0.921,2.734,2.76L459.498,44.099L459.498,44.099z M456.347,41.145v-8.398h-7.25
		v8.545L456.347,41.145z"/>
	<path fill="#FFFFFF" d="M473.365,44.099h-4.615c-1.822,0-2.734-0.919-2.734-2.76V23.2h-2.854v-2.856h2.854v-7.396h3.199v7.396h4.15
		V23.2h-4.15v18.042h4.15V44.099z"/>
	<path fill="#FFFFFF" d="M480.957,15.144h-3.295v-4.103h3.295V15.144z M480.908,44.099h-3.197V20.344h3.197V44.099z"/>
	<path fill="#FFFFFF" d="M499.804,20.344l-5.883,23.805h-2.955l-5.908-23.805h3.347l4.053,18.701l4.102-18.701H499.804z"/>
	<path fill="#FFFFFF" d="M517.066,41.341c0,1.841-0.912,2.76-2.734,2.76h-7.812c-1.823,0-2.733-0.919-2.733-2.76V23.103
		c0-1.839,0.91-2.76,2.733-2.76h7.812c1.822,0,2.734,0.921,2.734,2.76v8.545l-1.101,1.146h-9.033v8.595h6.982v-4.347h3.15
		L517.066,41.341L517.066,41.341z M513.916,30.208v-7.152h-6.982v7.152H513.916z"/>
</g>
</svg>
