<?xml version="1.0" encoding="utf-8"?>
<!-- Generator: Adobe Illustrator 16.0.0, SVG Export Plug-In . SVG Version: 6.00 Build 0)  -->
<!DOCTYPE svg PUBLIC "-//W3C//DTD SVG 1.1//EN" "http://www.w3.org/Graphics/SVG/1.1/DTD/svg11.dtd">
<svg version="1.1" id="Layer_1" xmlns="http://www.w3.org/2000/svg" xmlns:xlink="http://www.w3.org/1999/xlink" x="0px" y="0px"
width="93.488px" height="140.942px" viewBox="0 0 93.488 140.942" enable-background="new 0 0 93.488 140.942"
xml:space="preserve">
<g>
<g>
<polygon fill="#FFFFFF" points="20.315,0 0,20.155 0,72.077 17.701,89.784 58.268,89.786 58.269,104.978 39.527,104.978
39.528,93.518 0.019,93.518 0.017,123.038 17.828,140.942 75.757,140.942 93.476,123.25 93.478,70.769 75.462,53.259
38.302,53.259 38.303,36.901 56.733,36.902 56.732,49.822 93.486,49.823 93.488,20.189 73.716,0 		"/>
<polygon fill="#A90533" points="1.209,20.785 1.209,71.352 18.398,88.545 59.488,88.543 59.488,106.102 38.364,106.102
38.364,94.651 1.246,94.651 1.246,122.295 18.508,139.694 75.127,139.694 92.318,122.516 92.318,71.366 74.802,54.439
37.092,54.439 37.093,35.609 57.961,35.609 57.96,48.586 92.316,48.586 92.318,20.805 73.081,1.125 20.996,1.125 		"/>
<path fill="#FFFFFF" d="M3.471,21.81v48.649l15.847,15.85c0,0,38.318,0,42.432-0.002c0,3.471-0.001,18.672-0.002,22.141
c-3.592,0-22.107,0-25.702,0.002c0-2.93,0.001-11.451,0.001-11.451L3.508,96.998v24.384l15.897,16.08h54.758L90,121.614V72.341
L73.797,56.786c0,0-34.921,0-39.026,0c0.001-3.516,0.002-19.895,0-23.41c3.588,0,21.866,0,25.45,0c0,3.104,0,12.974,0,12.974H90
V21.82L72.11,3.473H21.891L3.471,21.81z"/>
<polygon fill="#A90533" points="22.826,5.927 5.775,22.944 5.775,69.677 20.279,84.184 64.051,84.184 64.05,110.907
33.768,110.907 33.768,99.454 5.809,99.456 5.81,120.578 20.343,135.334 73.237,135.334 87.72,120.818 87.722,73.432
72.835,59.241 32.494,59.24 32.493,31.248 62.527,31.248 62.527,44.227 87.72,44.227 87.722,22.944 71.179,5.928 		"/>
<path fill="#A90533" d="M55.587,77.795c0,0.007-0.02,0.045-0.096,0.127C55.527,77.885,55.56,77.84,55.587,77.795z"/>
</g>
<g>
<path fill="#FFFFFF" d="M47.998,3.521c-0.959,0.053-1.457,0.41-1.661,0.736C46.108,4.625,46,4.92,46.004,5.291
c0.003,0.272,0.061,0.516,0.12,0.741c-0.364,0.703-0.868,1.793-0.913,1.799c0,0-0.401,0.003-0.383,0.001
c-1.51,0.036-1.754,0.693-2.046,1.254c-0.18,0.348-0.247,0.705-0.242,1.044c0.009,0.925,0.534,2.216,0.671,2.412
c0,0,0.257,0.368,0.365,0.521c-2.375,1.615-2.274,3.161-2.262,4.218c0.003,0.276,0.079,0.544,0.22,0.811
c0.153,0.286,0.372,0.48,0.616,0.637c-0.085,0.086-0.17,0.172-0.251,0.259c-1.832,1.407-3.901,2.702-3.951,4.407
c-0.042,0.155,0.263,1.14,0.461,1.374c0.004,0.005,0.012,0.007,0.016,0.013c-1.257,0.625-2.601,1.774-2.584,3.182
c0,0.051,0.002,0.103,0.007,0.154c0.141,1.755,2.288,2.453,2.942,2.625l0.554,0.146l0.491-0.294
c1.859-1.113,3.011-1.379,3.648-1.428c0.001,0.024,0.01,0.052,0.01,0.076c0.038,3.22-4.515,4.621-4.708,4.684l0.229-0.054
c-5.983,0.854-8.303,5.302-8.754,6.301c-0.952,1.037-1.256,1.936-1.249,2.628c0.013,0.962,0.569,1.539,0.61,1.58l0.155,0.155
l0.198,0.101c2.073,1.035,6.217-1.317,8.502-2.811l0.119-0.078l0.099-0.1c0.301-0.301,0.743-0.654,1.146-0.629
c0.437,0.027,0.799,0.479,0.803,0.484l0.239,0.307l0.379,0.153c0.485,0.179,0.78,0.332,0.984,0.454
c-0.934,0.284-3.061,1.128-8.278,3.632l-0.42,0.201l-0.208,0.417c-0.599,1.2-2.992,2.564-4.36,3.142
c-2.182,0.948-3.461,2.192-3.813,3.703c-0.07,0.303-0.1,0.592-0.097,0.866c0.017,1.336,0.773,2.278,0.876,2.399l0.323,0.381
l0.492,0.082c1.33,0.222,7.887-1.234,11.678-2.123l0.092-0.021l0.089-0.035c1.607-0.623,2.111-0.4,2.169-0.37
c0.015,0.15,0.041,0.41,0.041,0.41s0.114,0.097,0.225,0.193c-0.135,0.676-1.314,2.328-2.622,3.641l-0.241,0.241l-0.1,0.328
c-0.346,1.151-1.771,1.868-2.291,2.048l0.106-0.031c-7.388,1.846-7.468,4.719-7.317,5.557l0.221,1.214l6.717-0.56l0.334-0.286
c0.408-0.35,0.527-0.226,0.625-0.127l0.268,0.276l0.417,0.139c0,0,0.471,0.117,0.934,0.233c0.002,0.043,0.015,0.057,0.015,0.105
c0.007,0.573-0.131,1.483-0.364,2.396c-0.99,0-3.499,0-3.499,0s-0.132,0.799-0.166,1.006c-0.202,0.131-0.58,0.271-1.031,0.276l0,0
c-1.596-0.667-3.224,1.054-3.418,1.247l-0.135,0.136c0,0-0.168,0.249-0.186,0.28c-0.158,0.238-0.918,0.647-1.62,0.962l0.227-0.079
c-1.376,0.346-1.782,1.087-1.879,1.65c-0.018,0.108-0.026,0.213-0.025,0.317c0.008,0.658,0.4,1.203,0.848,1.57
c-1.091,0.279-2.726,0.696-2.708,2.173c0.001,0.037,0.002,0.072,0.005,0.111c0.034,0.527,0.314,0.994,0.769,1.277
c0.513,0.319,1.876,1.171,12.673-3.264c0,0,0.055-0.021,0.108-0.045c-0.28,0.283-0.601,0.568-0.962,0.814l-0.153,0.102
l-0.123,0.143c-0.954,1.113-2.707,1.573-2.725,1.578l0.121-0.023c-4.369,0.699-5.835,2.644-6.322,3.742
c-0.433,0.98-0.415,1.984,0.046,2.689c0.471,0.725,0.563,0.782,5.523-0.109c-0.236,0.629-0.477,1.615-0.902,2.367
c-0.312,0.281-3.818,3.432-3.958,3.559c-4.656,2.645-7.446,11.219-7.752,12.201l-0.044,0.145l-0.014,0.146
c-0.009,0.125-0.014,0.245-0.012,0.357c0.014,1.191,0.635,1.766,1.025,2.012c1.427,0.891,3.518-0.172,4.352-0.668l0.311-0.186
l0.636-1.135c0.702-1.189,2.736-1.582,3.503-1.64c2.199,0.265,4.402-1.813,4.843-2.261l0.115-0.114l0.083-0.14
c0.201-0.337,0.482-0.382,0.551-0.389c3.125,0.412,5.407-2.98,6.208-4.395c0.727-0.191,1.335-0.021,1.909,1.161
c0.386,0.795,0.632,3.237,0.684,4.721c0,0.001,0.001,0.735,0.001,0.737c-0.001-0.006-0.139,4.539-0.139,4.539l-0.133,4.374
c0,0,0.113-0.154,0.124-0.169c0,0.008-0.006,0.141-0.006,0.141c-0.001,0.023-0.046,2.351-0.046,2.351
c-0.032,1.947-0.083,4.89-0.171,5.565c-0.344,2.598-0.818,2.898-0.997,3.01c-0.158,0.096-0.701,0.314-1.119,0.424
c-0.65,0.17-0.884,0.307-1.664,0.637c-2.468,1.052-3.159,2.836-3.818,4.449c-0.335,0.819-0.745,1.488-1.134,1.734
c-1.277,0.811-1.277,0.811-1.767,0.891l-1.047,0.199c-2.361,0.521-3.549,2.846-3.675,3.107l-0.947,1.953l40.218-0.018
l-0.205-1.764c-0.203-1.885-1.042-3.088-5.07-4.424c-1.717-0.57-2.07-0.984-2.656-1.675c-0.739-0.867-1.656-1.616-4.596-3.112
c-1.126-0.574-2.139-3.02-2.773-6.125c-0.361-1.768-0.225-3.848-0.223-3.869l0.004-0.07l-0.213-6.066
c0.002,0.04-0.027-4.88-0.027-4.88c0,0.019,0.057-4.812,0.08-6.771c1.408,0.896,3.068,1.017,3.285,1.028
c0.011,0,5.15,0.211,5.15,0.211l0.09-0.008c1.057-0.094,4.16,1.732,6.393,3.5l0.081,0.064l0.089,0.051
c1.598,0.912,3.598,1.826,4.902,0.782c0.853-0.681,0.883-1.812,0.648-2.571l0.049,0.209c-1.301-9.305-6.667-10.83-7.54-11.018
c-0.304-0.084-0.501-0.166-0.618-0.227c0.049-0.068,0.105-0.139,0.16-0.189l-0.088,0.074c1.613-1.254,2.277-2.512,1.978-3.737
c-0.45-1.829-2.791-2.343-3.257-2.427l-0.217-0.04l-0.216,0.03c-2.272,0.324-4.812-1.179-5.095-1.35
c-2.445-1.869-3.105-3.324-3.114-4.145c-0.003-0.23,0.046-0.41,0.12-0.536l-0.037,0.052l0.166-0.234c0,0,0.02-0.088,0.041-0.174
c0.797,0.006,2.877,0.915,4.631,2.052l-0.156-0.12c1.99,1.743,4.191,0.943,5.078,0.275l0.343-0.258c0,0,0.106-0.336,0.138-0.434
c0.135-0.293,0.949-1.097,1.707-1.691c1.1-0.838,1.402-1.658,1.395-2.313c-0.003-0.213-0.039-0.409-0.09-0.583
c-0.577-1.932-3.916-2.623-6.754-2.861c-0.438-0.264-1.982-1.193-1.982-1.193c-2.466-1.45-3.895-2.355-4.752-4.1
c1.73,0.158,3.34,0.312,4.275,0.414c1.018,0.438,3.029,0.113,3.576-0.146c0.791-0.373,1.062-1.048,1.055-1.591
c0-0.034,0-0.068-0.004-0.1c-0.099-1.314-1.752-3.404-4.621-4.689c-2.564-1.148-4.507-3.605-4.682-4.211
c-0.152-0.523-0.209-1.095-0.215-1.636c-0.006-0.569,0.044-1.093,0.099-1.504c1.159,0.043,2.419,1.471,2.433,1.488l0.451,0.54
l0.706-0.054c0.455-0.038,1.288,0.293,1.708,0.529l0.521,0.292l0.572-0.183c0.651-0.213,2.841,0.105,4.019,0.278
c2.066,0.302,2.826,0.682,3.48-0.486l0.172-0.269l0.076-0.362c0.378-5.704-3.826-7.8-4.002-7.886l-0.447-0.218
c0,0-0.068,0.017-0.104,0.025c-0.215-0.233-0.521-0.685-0.725-1.09c-1.033-1.856-2.994-2.189-4.439-2.078
c-0.494-0.402-1.129-0.629-1.8-0.713c-0.175-0.19-0.233-0.254-0.392-0.427c-0.034-0.208-0.076-0.4-0.136-0.573
c0.233,0.033,0.465,0.064,0.7,0.098c6.441,0.902,7.26,0.924,7.967,0.213c0.408-0.412,0.623-0.937,0.617-1.485
c-0.002-0.139-0.018-0.281-0.049-0.421c-0.496-2.287-5.664-4.676-9.911-6.278c-3.089-1.178-3.894-2.414-4.054-2.72
c-0.014-0.114-0.131-0.284-0.131-0.381c-0.004-0.273,0.102-0.4,0.19-0.478c0.329-0.281,1.149-0.193,1.958,0.065l0.152,0.048
l0.162,0.014c2.658,0.201,3.889-1.185,4.195-2.035l0.164-0.452l-0.158-0.455c-0.586-1.694-1.911-2.855-3.115-3.445
c0.137-0.182,0.891-0.484,0.832-1.773c-0.024-0.569-0.715-2.034-2.785-3.451c1.525-0.506,0.036-3.176-1.785-4.604
c0,0-0.486-0.371-0.556-0.42c1.073-0.312,1.688-1.561,1.823-2.381c0.02-0.125,0.029-0.249,0.027-0.369
c-0.008-0.805-0.489-1.484-1.217-1.65c-1.314-0.301-1.754-0.628-1.879-0.744c0.336-0.047,0.005-1.871-0.219-2.208
c0.021-0.178,0.166-0.596,0.164-0.779c-0.008-0.577-0.082-0.944-0.484-1.372C49.011,3.549,48.404,3.521,47.998,3.521z"/>
</g>
<g>
<path fill="#007663" d="M51.316,97.077l-0.092,7.615l0.029,4.92l0.212,5.994c0,0-0.157,2.253,0.247,4.233
c0.53,2.604,1.548,6.078,3.488,7.065c5.372,2.733,3.267,3.48,7.438,4.865c4.274,1.42,4.03,2.437,4.169,3.564H30.286
c0,0,0.968-1.987,2.755-2.383c1.786-0.394,1.238,0.01,3.25-1.27c1.639-1.041,1.353-4.631,4.756-6.079
c1.386-0.589,2.337-0.757,2.975-1.161c0.458-0.289,1.191-0.75,1.619-3.98c0.143-1.075,0.176-6.244,0.228-8.034l0.211-4.634
l-0.195,0.266l0.14-4.58l-0.003-0.779c0,0-0.132-3.855-0.818-5.27c-0.688-1.414-1.909-2.609-4.047-1.728
c0,0-2.383,4.823-5.329,4.194c0,0-1.051-0.002-1.681,1.047c0,0-2.239,2.275-3.922,1.854c0,0-3.383,0.201-4.628,2.313
c-0.119,0.203-0.471,0.841-0.471,0.841s-3.524,2.103-3.313-0.419c0,0,2.869-9.215,7.286-11.527l4.207-3.785
c0,0,2.351-4.762,0.878-4.975l-5.443,1.121c0,0,0.206-3.23,5.464-4.072c0,0,2.048-0.815,3.31-2.287c0,0,3.156-2.102,2.103-3.784
c0,0-1.05-0.63-2.522,0.629c0,0-11.468,4.71-11.569,3.155c-0.058-0.891,3.367-0.842,3.788-1.895c0,0,0-2.311-1.474-1.26
c0,0-1.262-0.842,0.419-1.262c0,0,1.895-0.844,2.316-1.684c0,0,1.26-1.26,2.314-0.842c0,0,2.313,0.001,2.521-1.262h3.365
c0,0,1.249-3.73,0.408-4.993l-1.684-0.42c0,0-1.052-1.261-2.522,0l-5.049,0.421c0,0-0.42-2.316,6.31-3.997
c0,0,2.523-0.841,3.156-2.943c0,0,4.205-4.207,2.734-5.47c0,0-0.21-2.102-3.998-0.631c0,0-9.886,2.315-11.145,2.105
c0,0-2.313-2.735,2.523-4.837c0,0,3.995-1.682,5.047-3.787c0,0,7.597-3.643,8.439-3.644c0,0,2.732-1.47-1.263-2.942
c0,0-1.685-2.315-3.997,0c0,0-5.469,3.574-7.151,2.732c0,0-0.839-0.84,0.842-2.522c0,0,1.893-4.838,7.781-5.68
c0,0,6.778-2.05,5.478-7.259c0,0-1.56-0.918-5.547,1.47c0,0-4.467-1.478,0.596-3.73l1.516-2.056c0,0-1.545,1.093-1.776-0.055
c-0.115-0.574-0.158-1.388,1.44-2.177c2.058-1.015,1.572-1.939,4.007-2.05c0,0,0.331-0.473,0.121-1.004
c-2.343-0.279-3.46-3.229,0.634-5.021l0.417-1.729l-1.769,0.157c0,0-1.481-2.671,1.36-2.618c0,0,1.314-1.312,1.771-3.218
c0,0-0.726-1.126,0.535-1.127c0,0,0.852-0.375,0.433,1.517c0,0,0.509,1.083,0.509,2.133c0,0-0.522,1.208,2.561,1.914
c0.327,0.075,0.339,2.273-1.765,2.062c0,0-0.688,1.375,1.3,2.944c0,0,3.285,3.049,0.305,3.216c0,0,4.584,2.922,3.266,4.239
c-0.572,0.573-2.349-0.229-2.514,0.097c-0.24,0.479-0.146,0.717,0.48,0.978c0.526,0.221,3.817,1.062,4.723,3.678
c0,0-0.477,1.319-2.814,1.141c0,0-4.414-1.625-3.785,2.371c0,0,0.508,2.024,4.924,3.708c0,0,10.75,4.055,8.859,5.957
c-0.506,0.508-9.488-1.121-11.174-1.121l-0.21,1.263c0,0,2.524-0.632,2.524,1.682l1.029,1.118c0,0,1.681,0,1.893,0.842
c0,0,2.731-0.631,3.785,1.264c0,0,1.052,2.101,1.892,1.893c0,0,3.517,1.726,3.196,6.586c-0.221,0.358-5.131-0.909-6.765-0.373
c0,0-1.39-0.793-2.489-0.702c0,0-2.358-2.858-4.666-1.728c0,0-0.605,2.548,0,4.628c0.33,1.138,2.658,3.833,5.43,5.073
c2.643,1.183,3.775,2.948,3.82,3.551c0.062,0.814-2.271,0.553-2.631,0.471c-0.359-0.083-6.83-0.683-6.83-0.683
s0.025,0.597,0.371,1.502c1.223,3.212,3.742,4.084,7.844,6.648c0,0,8.625,0.63,5.049,3.363c0,0-1.96,1.527-2.17,2.368
c0,0-1.68,1.265-3.365-0.21c0,0-6.244-4.052-6.665-1.314c0,0-1.919,2.562,3.339,6.556c0,0,3.121,1.999,6.065,1.579
c0,0,4.472,0.812,0.687,3.757c0,0-2.101,1.896,1.053,2.733c0,0,5.258,0.845,6.521,9.885c0,0,0.838,2.736-3.579,0.213
c0,0-5.046-3.997-7.359-3.787l-5.05-0.21c0,0-2.032-0.099-3.191-1.251C52.826,96.331,51.451,95.25,51.316,97.077z"/>
</g>
</g>
</svg>
