<?xml version="1.0" encoding="utf-8"?>
<!-- Generator: Adobe Illustrator 15.1.0, SVG Export Plug-In . SVG Version: 6.00 Build 0)  -->
<!DOCTYPE svg PUBLIC "-//W3C//DTD SVG 1.1//EN" "http://www.w3.org/Graphics/SVG/1.1/DTD/svg11.dtd">
<svg version="1.1" id="Layer_1" xmlns="http://www.w3.org/2000/svg" xmlns:xlink="http://www.w3.org/1999/xlink" x="0px" y="0px"
	 width="100px" height="100px" viewBox="0 0 100 100" enable-background="new 0 0 100 100" xml:space="preserve">
<path fill="#999999" d="M59.07,87.436c0.453-2.291,0.505-3.104,4.998-4.48c5.856-1.795,12.938,0.6,16.287-2.289
	c2.396-2.068,1.354-5.618,0.949-8.518c-0.117-0.836-0.363-0.942,1.375-2.683c1.74-1.741,0.364-3.479,0.364-3.479
	c2.54-1.812,1.376-2.827,1.015-3.479c-0.365-0.652-1.088-2.902-0.291-3.334c2.273-1.244,1.232,0.723,4.496-1.307
	c3.264-2.032,0.217-5.438-0.508-6.669c-0.727-1.235-4.062-5.366-5.076-7.034c-1.015-1.668-0.506-2.466,0.291-3.408
	c0.797-0.942,0.289-1.668,0-3.915c-0.291-2.248-3.262-6.814-3.408-8.845c-0.145-2.028-2.029-9.499-2.029-9.499
	c2.682-4.132,1.015-10.222,1.015-10.222c-0.071,1.087-0.868,1.521-0.868,1.521c0.288-1.449,0-2.797,0-2.797
	c-0.218,0.757-0.8,0.479-0.8,0.479c-0.071-0.941-1.522-1.887-1.522-1.887c-0.361,3.483-3.263,3.324-3.263,3.324
	C52.631,5.9,47.307,1.523,32.364,3.633c-8.642,1.22-10.367,6.744-10.367,6.744c-5.8,2.756-8.845,8.772-10.947,16.748
	c-2.103,7.975,1.702,19.388,3.698,25.23c2.058,6.026,2.739,7.395,3.87,9.623c1.307,2.574,4.273,7.312,4.248,11.186
	c-0.025,3.915,0.052,6.346-0.346,11.324c-0.526,6.611-0.322,7.621,10.774,11.091c6.107,1.907,12.916,3.212,22.896-1.04
	C58.475,93.566,58.271,91.451,59.07,87.436z"/>
</svg>
